<?xml version="1.0" encoding="UTF-8" standalone="no"?>

<svg width="100%" height="100%" viewBox="0 0 29 28" version="1.1" xmlns="http://www.w3.org/2000/svg" xmlns:xlink="http://www.w3.org/1999/xlink" xml:space="preserve" style="fill-rule:evenodd;clip-rule:evenodd;stroke-linejoin:round;stroke-miterlimit:2;">
    <g id="LieferandoDE">
        <g id="LieferandoDE_Full_Colour">
            <path id="House" d="M13.13,0.4C13.659,0.003 14.391,0.003 14.92,0.4C16.31,1.29 17.6,2.19 18.92,3.18C18.92,3.18 19.22,3.38 19.32,2.98C19.258,2.482 19.292,1.976 19.42,1.49C19.521,1.195 19.798,0.994 20.11,0.99C20.422,0.986 21.6,1.09 22.59,1.19C23.026,1.278 23.354,1.646 23.39,2.09C23.426,2.534 23.98,6.26 24.18,7.75C24.392,8.534 24.801,9.25 25.37,9.83C26.269,11.04 27.1,12.298 27.86,13.6C28.62,14.902 28.35,14.7 27.26,14.8C27.26,14.8 25.17,14.99 24.98,15.09C24.68,15.121 24.457,15.389 24.48,15.69C24.503,15.991 24.38,22.94 23.88,26.51C23.88,26.51 23.78,27.9 22.99,27.9C22.99,27.9 20.9,27.8 20.41,27.8C20.41,27.8 20.21,27.8 20.21,27.5C20.21,27.5 21.3,16.19 20.61,10.43C20.604,10.039 20.368,9.686 20.01,9.53C19.652,9.374 19.51,9.33 19.01,10.03C16.866,13.015 15.686,16.585 15.63,20.26C15.571,21.026 15.639,21.796 15.83,22.54C16.021,23.284 16.03,22.84 16.92,22.94L18.02,23.14C18.02,23.14 18.21,23.14 18.21,23.43C18.21,23.43 17.92,26.81 17.92,27.43C17.933,27.571 17.898,27.712 17.82,27.83C17.703,27.911 17.561,27.947 17.42,27.93L11.94,27.93C11.831,27.932 11.725,27.897 11.64,27.83C11.54,27.63 11.34,23.56 11.34,22.97C11.34,22.87 11.44,22.77 11.54,22.67C12.311,22.189 12.823,21.382 12.93,20.48C13.01,19.856 13.01,19.224 12.93,18.6C12.85,17.976 13.13,12.24 13.13,11.15C13.13,11.15 13.23,10.85 12.73,10.75C12.533,10.69 12.32,10.796 12.25,10.99C12.18,11.184 12.25,10.99 12.25,11.05C12.25,11.11 11.95,15.32 11.95,16.91C11.95,16.91 12.05,18 11.35,18C11.35,18 10.66,18.1 10.56,17.21C10.56,17.21 10.66,13.14 10.76,11.05C10.738,10.84 10.57,10.672 10.36,10.65C10.327,10.642 10.294,10.637 10.26,10.637C10.04,10.637 9.86,10.818 9.86,11.037C9.86,11.041 9.86,11.046 9.86,11.05C9.86,11.054 9.57,15.05 9.57,17.05C9.57,17.05 9.66,18.05 8.87,18.05C8.87,18.05 8.18,18.15 8.18,17.26C8.18,17.26 8.37,11.6 8.37,11.2C8.394,10.957 8.221,10.736 7.98,10.7L7.88,10.7C7.68,10.7 7.38,10.8 7.38,11.1L7.38,11.2C7.38,11.2 7.08,17.95 7.08,19.94C7.098,21.08 7.65,22.147 8.57,22.82C8.685,22.877 8.762,22.992 8.77,23.12C8.778,23.248 8.97,26.69 9.07,27.88C9.07,27.88 9.17,28.18 8.87,28.18L5.1,27.98C5.1,27.98 4.5,28.08 4.3,27.29C3.834,23.474 3.6,19.634 3.6,15.79C3.623,15.489 3.4,15.221 3.1,15.19C2.8,15.159 1.22,14.99 0.72,14.89C0.354,14.801 0.094,14.47 0.094,14.093C0.094,14.025 0.103,13.956 0.12,13.89C0.12,13.79 0.22,13.79 0.22,13.69C3.453,8.333 7.869,3.787 13.13,0.4Z" style="fill:white;fill-rule:nonzero;"/>
            <g id="LieferandoDE-2">
            </g>
        </g>
    </g>
</svg>
