<svg id="Layer_1" data-name="Layer 1" xmlns="http://www.w3.org/2000/svg" viewBox="0 0 143 28"><defs><style>.cls-1{fill:#fff;}</style></defs><title>Artboard 1</title><g id="LieferandoDE"><g id="LieferandoDE_Full_Colour" data-name="LieferandoDE Full Colour"><path id="House" class="cls-1" d="M13.13.4a1.49,1.49,0,0,1,1.79,0c1.39.89,2.68,1.79,4,2.78,0,0,.3.2.4-.2a3.94,3.94,0,0,1,.1-1.49.74.74,0,0,1,.69-.5s1.49.1,2.48.2a1,1,0,0,1,.8.9s.59,4.17.79,5.66a4.73,4.73,0,0,0,1.19,2.08,40.92,40.92,0,0,1,2.49,3.77s.49,1.1-.6,1.2c0,0-2.09.19-2.28.29a.56.56,0,0,0-.5.6h0s-.1,7.25-.6,10.82c0,0-.1,1.39-.89,1.39,0,0-2.09-.1-2.58-.1,0,0-.2,0-.2-.3,0,0,1.09-11.31.4-17.07a1,1,0,0,0-.6-.9s-.5-.2-1,.5a18,18,0,0,0-3.38,10.23,7,7,0,0,0,.2,2.28s.2.3,1.09.4l1.1.2s.19,0,.19.29c0,0-.29,3.38-.29,4a.62.62,0,0,1-.1.4.58.58,0,0,1-.4.1H11.94a.47.47,0,0,1-.3-.1c-.1-.2-.3-4.27-.3-4.86,0-.1.1-.2.2-.3a3,3,0,0,0,1.39-2.19,7.39,7.39,0,0,0,0-1.88s.2-6.36.2-7.45c0,0,.1-.3-.4-.4a.39.39,0,0,0-.48.24s0,0,0,.06h0s-.3,4.27-.3,5.86c0,0,.1,1.09-.6,1.09,0,0-.69.1-.79-.79,0,0,.1-4.07.2-6.16a.45.45,0,0,0-.4-.4.4.4,0,0,0-.5.4h0s-.29,4-.29,6c0,0,.09,1-.7,1,0,0-.69.1-.69-.79,0,0,.19-5.66.19-6.06a.46.46,0,0,0-.39-.5h-.1c-.2,0-.5.1-.5.4v.1s-.3,6.75-.3,8.74a3.64,3.64,0,0,0,1.49,2.88.36.36,0,0,1,.2.3s.2,3.57.3,4.76c0,0,.1.3-.2.3l-3.77-.2s-.6.1-.8-.69A94.86,94.86,0,0,1,3.6,15.79a.56.56,0,0,0-.5-.6s-1.88-.2-2.38-.3a.82.82,0,0,1-.6-1c0-.1.1-.1.1-.2A41,41,0,0,1,13.13.4Z"/><g id="LieferandoDE-2"><path class="cls-1" d="M56.82,15.4a4.37,4.37,0,0,0-1.4-1,4.74,4.74,0,0,0-2-.4,5.23,5.23,0,0,0-2.1.4,5.73,5.73,0,0,0-1.7,1,3.58,3.58,0,0,0-1.1,1.6,6.63,6.63,0,0,0,0,4.8,4.67,4.67,0,0,0,1.1,1.6,4.38,4.38,0,0,0,1.7,1,8,8,0,0,0,2.1.4,6.29,6.29,0,0,0,2.3-.5,5.62,5.62,0,0,0,1.5-1,.37.37,0,0,0,.09-.52.34.34,0,0,0-.09-.08l-1.4-1h0l-.1-.1c-.2-.1-.4-.1-.5.1a2.25,2.25,0,0,1-1.8.8,2.69,2.69,0,0,1-1.5-.5,3,3,0,0,1-.8-1.7.22.22,0,0,1,.2-.2h6.3a.45.45,0,0,0,.4-.5v-.5a7.46,7.46,0,0,0-.3-2.1,8.11,8.11,0,0,0-.9-1.6M54.72,18h-3.4a.22.22,0,0,1-.2-.2c0-.2.1-.3.2-.5a2.42,2.42,0,0,1,.4-.6,2.22,2.22,0,0,1,1.5-.6,1.89,1.89,0,0,1,1.3.5,1.55,1.55,0,0,1,.5,1.1.26.26,0,0,1-.23.3h-.07"/><path class="cls-1" d="M64.82,14.3h-1.5a.22.22,0,0,1-.2-.2v-.7c0-.6.1-1.1.4-1.3a2,2,0,0,1,1.1-.3h.5a.42.42,0,0,0,.4-.4V9.8a.42.42,0,0,0-.4-.4h-1.3a6.83,6.83,0,0,0-2,.3,2.47,2.47,0,0,0-1.1.9,2.14,2.14,0,0,0-.5,1.2,8.41,8.41,0,0,0-.1,1.5v1a.22.22,0,0,1-.2.2h-1.3a.44.44,0,0,0-.4.4v1.5a.44.44,0,0,0,.4.4h1.3a.22.22,0,0,1,.2.2v7.2a.68.68,0,0,0,.4.5h2.1a.42.42,0,0,0,.4-.4V17.1a.22.22,0,0,1,.2-.2h1.5a.42.42,0,0,0,.4-.4V15c.1-.5-.1-.7-.3-.7"/><path class="cls-1" d="M45.62,9.5a1.85,1.85,0,0,0-1.8,1.7,1.76,1.76,0,0,0,1.7,1.8,1.74,1.74,0,0,0,1.8-1.7,1.62,1.62,0,0,0-.5-1.2,1.41,1.41,0,0,0-1.2-.6"/><path class="cls-1" d="M46.72,14.3h-2.1a.68.68,0,0,0-.5.4V24a.44.44,0,0,0,.4.4h2.1A.42.42,0,0,0,47,24V14.7c.1-.2-.1-.4-.3-.4"/><path class="cls-1" d="M82.42,14h-.6a3.36,3.36,0,0,0-1.7.4,3.2,3.2,0,0,0-.8.8h0v.1h0v.1l-.1.1a.42.42,0,0,1-.2-.1v-.6c0-.3-.2-.4-.5-.4h-2.1a.68.68,0,0,0-.5.4v9.4a.44.44,0,0,0,.4.4h2.1a.42.42,0,0,0,.4-.4V20a6.28,6.28,0,0,1,.1-1.3,3.33,3.33,0,0,1,.4-1,2.83,2.83,0,0,1,.8-.7,2,2,0,0,1,1.1-.2h1.1a.42.42,0,0,0,.4-.4V14.6c.2-.4-.1-.6-.3-.6"/><path class="cls-1" d="M74.12,15.4a4.37,4.37,0,0,0-1.4-1,4,4,0,0,0-1.9-.4,5.23,5.23,0,0,0-2.1.4,5.73,5.73,0,0,0-1.7,1,3.58,3.58,0,0,0-1.1,1.6,7.87,7.87,0,0,0,0,4.8A4.67,4.67,0,0,0,67,23.4a4.38,4.38,0,0,0,1.7,1,8,8,0,0,0,2.1.4,6.29,6.29,0,0,0,2.3-.5,5.62,5.62,0,0,0,1.5-1,.37.37,0,0,0,.07-.53.23.23,0,0,0-.07-.07l-1.4-1h0l-.1-.1c-.2-.1-.4-.1-.5.1a2.25,2.25,0,0,1-1.8.8,2.69,2.69,0,0,1-1.5-.5,3,3,0,0,1-.8-1.7.22.22,0,0,1,.2-.2H75a.45.45,0,0,0,.4-.5v-.5a7.46,7.46,0,0,0-.3-2.1c-.4-.6-.7-1.1-1-1.6M72,18h-3.5a.22.22,0,0,1-.2-.2c0-.2.1-.3.2-.5a1.88,1.88,0,0,1,1-1,3.09,3.09,0,0,1,.9-.2,1.89,1.89,0,0,1,1.3.5,1.55,1.55,0,0,1,.5,1.1c.1.2,0,.3-.2.3"/><path class="cls-1" d="M42.62,21.6h-5.1a.22.22,0,0,1-.2-.2V10.9a.66.66,0,0,0-.4-.5h-2.2a.47.47,0,0,0-.4.5V24a.48.48,0,0,0,.44.5h8a.65.65,0,0,0,.5-.4v-2c-.2-.3-.4-.5-.6-.5"/><path class="cls-1" d="M126.62,22.4a1.14,1.14,0,0,0-.8.3,1.06,1.06,0,0,0,1.5,1.5h0a1.09,1.09,0,0,0,0-1.5c-.1-.2-.3-.3-.7-.3"/><path class="cls-1" d="M91,15.3a4,4,0,0,0-1.3-1,5,5,0,0,0-2.1-.3,6.26,6.26,0,0,0-2.3.4,5.27,5.27,0,0,0-1.6.9c-.2.2-.2.5,0,.6h0l.9,1h0c.2.2.5.2.6,0h0a2.81,2.81,0,0,1,2-.8,1.89,1.89,0,0,1,1.3.5c.4.3.5.8.6,1.6a.22.22,0,0,1-.2.2h-1.1c-.5,0-1,.1-1.4.1l-1.4.3a3.47,3.47,0,0,0-1.2.6,4,4,0,0,0-.8,1,3.39,3.39,0,0,0-.3,1.4,3.25,3.25,0,0,0,.3,1.3,2.14,2.14,0,0,0,.7.9,4.07,4.07,0,0,0,1.1.6,5.76,5.76,0,0,0,1.3.2,4.69,4.69,0,0,0,1.7-.3,2.75,2.75,0,0,0,1.1-.8h.2l.1.1v.3a.44.44,0,0,0,.4.4h1.9a.42.42,0,0,0,.4-.4V19.6a22.29,22.29,0,0,0-.2-2.7,3.65,3.65,0,0,0-.7-1.6m-1.8,5.6a1.35,1.35,0,0,1-.7,1.3,1.06,1.06,0,0,1-.7.3,2.71,2.71,0,0,1-.9.1,2,2,0,0,1-1-.3.9.9,0,0,1-.5-.8,1.17,1.17,0,0,1,.3-.8,2.08,2.08,0,0,1,.8-.4,3.12,3.12,0,0,1,1-.2h1.4a.22.22,0,0,1,.2.2Z"/><path class="cls-1" d="M101.72,15.3a3.4,3.4,0,0,0-1.1-1,4,4,0,0,0-1.8-.4c-.3,0-.7.1-1,.1a2.08,2.08,0,0,0-.8.4,2.85,2.85,0,0,0-.6.5l-.2.2-.1.1a.22.22,0,0,1-.2-.2v-.4a.47.47,0,0,0-.43-.5H93.42a.47.47,0,0,0-.5.44v.06h0V24a.46.46,0,0,0,.5.4h2.1A.65.65,0,0,0,96,24V19a3,3,0,0,1,.1-.9,2.86,2.86,0,0,1,.3-.8,2.9,2.9,0,0,1,.5-.6,1.5,1.5,0,0,1,.9-.2,1.13,1.13,0,0,1,1.3.9,2.19,2.19,0,0,1,.2.8V24a.46.46,0,0,0,.5.4h2.1a.65.65,0,0,0,.5-.4V18.5c0-.6-.1-1.2-.1-1.8-.2-.4-.4-.9-.6-1.4"/><path class="cls-1" d="M113.32,9.5h-2.1a.44.44,0,0,0-.4.4v5c0,.1-.1.1-.2.1s-.1,0-.1-.1h0l-.1-.1-.1-.1h0a2.06,2.06,0,0,0-1-.6,4.91,4.91,0,0,0-1.7-.3,3.76,3.76,0,0,0-1.8.4,8.17,8.17,0,0,0-1.4,1.1,7,7,0,0,0-.9,1.6,8.59,8.59,0,0,0,0,4.5,3.88,3.88,0,0,0,1,1.6,4,4,0,0,0,1.5,1,4.33,4.33,0,0,0,1.9.4c.3,0,.6-.1,1-.1a3.64,3.64,0,0,0,.9-.4,2.7,2.7,0,0,0,.7-.5l.2-.2.1-.1.1-.1a.35.35,0,0,1,.2.1V24a.44.44,0,0,0,.4.4h1.9a.45.45,0,0,0,.4-.5V10h0c-.1-.3-.3-.5-.5-.5m-2.9,11.9a2.61,2.61,0,0,1-3.5,0,3.48,3.48,0,0,1-.6-2.1,3.17,3.17,0,0,1,.6-2,2.61,2.61,0,0,1,3.5,0,3.34,3.34,0,0,1,.6,2,3.22,3.22,0,0,1-.6,2.1"/><path class="cls-1" d="M123.52,15.6a4.31,4.31,0,0,0-1.7-1,6.07,6.07,0,0,0-4.2,0,5.73,5.73,0,0,0-1.7,1,3.58,3.58,0,0,0-1.1,1.6,6.62,6.62,0,0,0,0,4.8,4.67,4.67,0,0,0,1.1,1.6,4.38,4.38,0,0,0,1.7,1,6.07,6.07,0,0,0,4.2,0,5.6,5.6,0,0,0,1.7-1,3.5,3.5,0,0,0,1.1-1.6,7.87,7.87,0,0,0,0-4.8,4.1,4.1,0,0,0-1.1-1.6m-2,6a2.61,2.61,0,0,1-3.5,0,3.33,3.33,0,0,1-.6-2.1,3,3,0,0,1,.6-2,2.61,2.61,0,0,1,3.5,0,3.11,3.11,0,0,1,.6,2,3.22,3.22,0,0,1-.6,2.1"/></g><path class="cls-1" d="M132.62,14a4.48,4.48,0,0,0-2,.4,6.94,6.94,0,0,0-1.4.8c-.2.2-.1.4,0,.6h0l.4.4c.2.1.4.2.5.1l.1-.1h0a3.13,3.13,0,0,1,1-.5,3.9,3.9,0,0,1,1.5-.3,2.58,2.58,0,0,1,1.7.5,2.16,2.16,0,0,1,.6,1.5v.4a.22.22,0,0,1-.2.2h-.4a13.44,13.44,0,0,0-1.9.1,11.27,11.27,0,0,0-1.9.4,3.07,3.07,0,0,0-1.5,1,3.33,3.33,0,0,0-.6,2.1,3.39,3.39,0,0,0,.3,1.4,6.19,6.19,0,0,0,.7.9,3.77,3.77,0,0,0,1.1.5,6.06,6.06,0,0,0,1.4.2,4.44,4.44,0,0,0,1.9-.5c.3-.2.6-.5.9-.7h0l.1-.1h0c.1-.1.2-.1.2,0l.1.1V24a.44.44,0,0,0,.4.4h.6a.36.36,0,0,0,.4-.34.06.06,0,0,0,0-.06V18.3a5.11,5.11,0,0,0-.9-3.3,4.57,4.57,0,0,0-3.1-1m2.4,6.1a5.18,5.18,0,0,1-.2,1.3,3.53,3.53,0,0,1-.5,1.1,1.44,1.44,0,0,1-.9.6,2.58,2.58,0,0,1-1.2.2,2.86,2.86,0,0,1-1.5-.4c-.4-.2-.6-.9-.6-1.5a1.81,1.81,0,0,1,.9-1.6,5,5,0,0,1,2.4-.4h1.3a.22.22,0,0,1,.2.2Z"/><path class="cls-1" d="M142.72,23.2h-1.2a1.47,1.47,0,0,1-.6-.2,1,1,0,0,1-.4-.5,1.53,1.53,0,0,1-.2-.7V15.6a.22.22,0,0,1,.2-.2h2.1a.42.42,0,0,0,.4-.4v-.5a.46.46,0,0,0-.5-.4h-2.1a.22.22,0,0,1-.2-.2V12.7a.47.47,0,0,0-.43-.5h-.67a.47.47,0,0,0-.5.44v.06h0v1.2a.22.22,0,0,1-.2.2H137a.68.68,0,0,0-.5.4v.4a.44.44,0,0,0,.4.4h1.4a.22.22,0,0,1,.2.2v5.8a6.28,6.28,0,0,0,.1,1.3,3.33,3.33,0,0,0,.4,1,1.64,1.64,0,0,0,.8.6,3.06,3.06,0,0,0,1.3.2h1.4a.36.36,0,0,0,.4-.34.06.06,0,0,0,0-.06v-.6c.2.1,0-.2-.2-.2"/></g></g></svg>